<mxfile host="app.diagrams.net" agent="Mozilla/5.0 (Windows NT 10.0; Win64; x64) AppleWebKit/537.36 (KHTML, like Gecko) Chrome/130.0.0.0 Safari/537.36" version="26.3.0">
  <diagram name="Plataforma de Manutenção Preditiva" id="0">
    <mxGraphModel dx="1426" dy="743" grid="1" gridSize="10" guides="1" tooltips="1" connect="1" arrows="1" fold="1" page="1" pageScale="1" pageWidth="827" pageHeight="1169" math="0" shadow="0">
      <root>
        <mxCell id="0" />
        <mxCell id="1" parent="0" />
        <mxCell id="wkBsxgHyl8k8UtyuvIgr-39" value="" style="rounded=0;whiteSpace=wrap;html=1;" vertex="1" parent="1">
          <mxGeometry x="86" y="460" width="634" height="180" as="geometry" />
        </mxCell>
        <mxCell id="wkBsxgHyl8k8UtyuvIgr-37" value="" style="rounded=0;whiteSpace=wrap;html=1;" vertex="1" parent="1">
          <mxGeometry x="86" y="90" width="630" height="190" as="geometry" />
        </mxCell>
        <mxCell id="11" style="endArrow=block;exitX=1;exitY=0.5;exitDx=0;exitDy=0;exitPerimeter=0;" parent="1" source="wkBsxgHyl8k8UtyuvIgr-35" edge="1">
          <mxGeometry relative="1" as="geometry">
            <mxPoint x="480" y="190" as="sourcePoint" />
            <mxPoint x="600" y="190" as="targetPoint" />
          </mxGeometry>
        </mxCell>
        <mxCell id="14" style="endArrow=block;entryX=0.985;entryY=0.415;entryDx=0;entryDy=0;entryPerimeter=0;exitX=0;exitY=0.5;exitDx=0;exitDy=0;exitPerimeter=0;" parent="1" source="wkBsxgHyl8k8UtyuvIgr-34" target="wkBsxgHyl8k8UtyuvIgr-31" edge="1">
          <mxGeometry relative="1" as="geometry">
            <mxPoint x="330" y="410" as="sourcePoint" />
            <mxPoint x="229.375" y="500" as="targetPoint" />
          </mxGeometry>
        </mxCell>
        <mxCell id="15" style="endArrow=block;exitX=0.5;exitY=1;exitDx=0;exitDy=0;exitPerimeter=0;" parent="1" source="wkBsxgHyl8k8UtyuvIgr-34" edge="1">
          <mxGeometry relative="1" as="geometry">
            <mxPoint x="400" y="400" as="sourcePoint" />
            <mxPoint x="400" y="500" as="targetPoint" />
          </mxGeometry>
        </mxCell>
        <mxCell id="16" style="endArrow=block;entryX=-0.018;entryY=0.4;entryDx=0;entryDy=0;entryPerimeter=0;exitX=1;exitY=0.5;exitDx=0;exitDy=0;exitPerimeter=0;" parent="1" source="wkBsxgHyl8k8UtyuvIgr-34" target="wkBsxgHyl8k8UtyuvIgr-33" edge="1">
          <mxGeometry relative="1" as="geometry">
            <mxPoint x="445.20624999999995" y="400" as="sourcePoint" />
            <mxPoint x="595.89375" y="500" as="targetPoint" />
          </mxGeometry>
        </mxCell>
        <mxCell id="wkBsxgHyl8k8UtyuvIgr-19" value="" style="endArrow=classic;startArrow=classic;html=1;rounded=0;exitX=0.5;exitY=0;exitDx=0;exitDy=0;exitPerimeter=0;" edge="1" parent="1" source="wkBsxgHyl8k8UtyuvIgr-25">
          <mxGeometry width="50" height="50" relative="1" as="geometry">
            <mxPoint x="640" y="340" as="sourcePoint" />
            <mxPoint x="640" y="220" as="targetPoint" />
          </mxGeometry>
        </mxCell>
        <mxCell id="wkBsxgHyl8k8UtyuvIgr-28" style="edgeStyle=orthogonalEdgeStyle;rounded=0;orthogonalLoop=1;jettySize=auto;html=1;entryX=0;entryY=0.5;entryDx=0;entryDy=0;entryPerimeter=0;" edge="1" parent="1" source="wkBsxgHyl8k8UtyuvIgr-21" target="wkBsxgHyl8k8UtyuvIgr-35">
          <mxGeometry relative="1" as="geometry">
            <mxPoint x="320" y="190" as="targetPoint" />
          </mxGeometry>
        </mxCell>
        <mxCell id="wkBsxgHyl8k8UtyuvIgr-36" value="MQTT" style="edgeLabel;html=1;align=center;verticalAlign=middle;resizable=0;points=[];" vertex="1" connectable="0" parent="wkBsxgHyl8k8UtyuvIgr-28">
          <mxGeometry x="0.1081" y="-1" relative="1" as="geometry">
            <mxPoint as="offset" />
          </mxGeometry>
        </mxCell>
        <mxCell id="wkBsxgHyl8k8UtyuvIgr-21" value="ESP 32" style="outlineConnect=0;dashed=0;verticalLabelPosition=bottom;verticalAlign=top;align=center;html=1;shape=mxgraph.aws3.sensor;fillColor=#5294CF;gradientColor=none;" vertex="1" parent="1">
          <mxGeometry x="120" y="150" width="80" height="80" as="geometry" />
        </mxCell>
        <mxCell id="wkBsxgHyl8k8UtyuvIgr-25" value="Lambda function (Schedule)" style="outlineConnect=0;dashed=0;verticalLabelPosition=bottom;verticalAlign=top;align=center;html=1;shape=mxgraph.aws3.lambda_function;fillColor=#F58534;gradientColor=none;" vertex="1" parent="1">
          <mxGeometry x="615.7" y="345" width="51.4" height="50" as="geometry" />
        </mxCell>
        <mxCell id="wkBsxgHyl8k8UtyuvIgr-26" value="" style="endArrow=classic;startArrow=classic;html=1;rounded=0;entryX=0;entryY=0.5;entryDx=0;entryDy=0;entryPerimeter=0;exitX=1;exitY=0.5;exitDx=0;exitDy=0;exitPerimeter=0;" edge="1" parent="1" source="wkBsxgHyl8k8UtyuvIgr-34" target="wkBsxgHyl8k8UtyuvIgr-25">
          <mxGeometry width="50" height="50" relative="1" as="geometry">
            <mxPoint x="480" y="370" as="sourcePoint" />
            <mxPoint x="530" y="320" as="targetPoint" />
          </mxGeometry>
        </mxCell>
        <mxCell id="wkBsxgHyl8k8UtyuvIgr-27" value="AWS RDS (Postgres)" style="sketch=0;outlineConnect=0;fontColor=#232F3E;gradientColor=none;strokeColor=#ffffff;fillColor=#232F3E;dashed=0;verticalLabelPosition=middle;verticalAlign=bottom;align=center;html=1;whiteSpace=wrap;fontSize=10;fontStyle=1;spacing=3;shape=mxgraph.aws4.productIcon;prIcon=mxgraph.aws4.aurora;" vertex="1" parent="1">
          <mxGeometry x="601.1" y="110" width="80" height="110" as="geometry" />
        </mxCell>
        <mxCell id="wkBsxgHyl8k8UtyuvIgr-31" value="Dashboards" style="image;aspect=fixed;html=1;points=[];align=center;fontSize=12;image=img/lib/azure2/other/Azure_Monitor_Dashboard.svg;" vertex="1" parent="1">
          <mxGeometry x="126" y="510" width="68" height="63.2" as="geometry" />
        </mxCell>
        <mxCell id="wkBsxgHyl8k8UtyuvIgr-32" value="Relatórios automáticos" style="sketch=0;outlineConnect=0;fontColor=#232F3E;gradientColor=none;strokeColor=#ffffff;fillColor=#232F3E;dashed=0;verticalLabelPosition=middle;verticalAlign=bottom;align=center;html=1;whiteSpace=wrap;fontSize=10;fontStyle=1;spacing=3;shape=mxgraph.aws4.productIcon;prIcon=mxgraph.aws4.cost_and_usage_report;" vertex="1" parent="1">
          <mxGeometry x="360" y="500" width="80" height="110" as="geometry" />
        </mxCell>
        <mxCell id="wkBsxgHyl8k8UtyuvIgr-33" value="Amazon S3" style="sketch=0;outlineConnect=0;fontColor=#232F3E;gradientColor=none;strokeColor=#ffffff;fillColor=#232F3E;dashed=0;verticalLabelPosition=middle;verticalAlign=bottom;align=center;html=1;whiteSpace=wrap;fontSize=10;fontStyle=1;spacing=3;shape=mxgraph.aws4.productIcon;prIcon=mxgraph.aws4.s3;" vertex="1" parent="1">
          <mxGeometry x="601.4" y="500" width="80" height="100" as="geometry" />
        </mxCell>
        <mxCell id="wkBsxgHyl8k8UtyuvIgr-34" value="FastAPI + ML" style="sketch=0;points=[[0,0,0],[0.25,0,0],[0.5,0,0],[0.75,0,0],[1,0,0],[0,1,0],[0.25,1,0],[0.5,1,0],[0.75,1,0],[1,1,0],[0,0.25,0],[0,0.5,0],[0,0.75,0],[1,0.25,0],[1,0.5,0],[1,0.75,0]];outlineConnect=0;fontColor=#232F3E;fillColor=#01A88D;strokeColor=#ffffff;dashed=0;verticalLabelPosition=bottom;verticalAlign=top;align=center;html=1;fontSize=12;fontStyle=0;aspect=fixed;shape=mxgraph.aws4.resourceIcon;resIcon=mxgraph.aws4.machine_learning;" vertex="1" parent="1">
          <mxGeometry x="362" y="331" width="78" height="78" as="geometry" />
        </mxCell>
        <mxCell id="wkBsxgHyl8k8UtyuvIgr-35" value="API Coleta" style="outlineConnect=0;dashed=0;verticalLabelPosition=bottom;verticalAlign=top;align=center;html=1;shape=mxgraph.aws3.android;fillColor=#FFD44F;gradientColor=none;" vertex="1" parent="1">
          <mxGeometry x="364.25" y="148" width="73.5" height="84" as="geometry" />
        </mxCell>
        <mxCell id="wkBsxgHyl8k8UtyuvIgr-38" value="Camada de coleta e persistência&lt;div&gt;&lt;br&gt;&lt;/div&gt;" style="text;html=1;align=center;verticalAlign=middle;whiteSpace=wrap;rounded=0;" vertex="1" parent="1">
          <mxGeometry x="60" y="70" width="224" height="30" as="geometry" />
        </mxCell>
        <mxCell id="wkBsxgHyl8k8UtyuvIgr-40" value="Outputs" style="text;html=1;align=center;verticalAlign=middle;whiteSpace=wrap;rounded=0;" vertex="1" parent="1">
          <mxGeometry x="70" y="430" width="70" height="30" as="geometry" />
        </mxCell>
        <mxCell id="wkBsxgHyl8k8UtyuvIgr-41" value="" style="points=[];aspect=fixed;html=1;align=center;shadow=0;dashed=0;fillColor=#FF6A00;strokeColor=none;shape=mxgraph.alibaba_cloud.eventbridge;" vertex="1" parent="1">
          <mxGeometry x="667.1" y="340" width="20" height="20" as="geometry" />
        </mxCell>
      </root>
    </mxGraphModel>
  </diagram>
</mxfile>
